<!-- Generated by Trae AI - v3.0 Final (No Isolator) -->
<svg width="1200" height="800" xmlns="http://www.w3.org/2000/svg">

  <style>
    .bg { fill: #ffffff; }
    .label { font: bold 14px sans-serif; }
    .pin-label { font: bold 11px sans-serif; }
    .component-body { fill: #f0f0f0; stroke: #333; stroke-width: 2; }
    .title { font: bold 20px sans-serif; fill: #000; }
    .wire-5v { stroke: #d94545; stroke-width: 2; fill: none; }
    .wire-3v3 { stroke: #e67e22; stroke-width: 2; fill: none; }
    .wire-gnd { stroke: #333; stroke-width: 2; fill: none; }
    .wire-spi { stroke: #4a90e2; stroke-width: 1.5; fill: none; }
    .wire-control { stroke: #f5a623; stroke-width: 1.5; fill: none; }
    .wire-ac { stroke: #c23b22; stroke-width: 3; fill: none; }
  </style>

  <rect width="100%" height="100%" class="bg"/>

  <title>Фінальна схема підключення контролера печі</title>
  <text x="600" y="40" text-anchor="middle" class="title">Фінальна схема підключення (без DC/DC ізолятора)</text>

  <!-- COMPONENTS -->
  <g id="group_esp32">
    <rect x="450" y="150" width="100" height="320" rx="5" class="component-body" />
    <text x="500" y="140" text-anchor="middle" class="label">ESP32-S3 WeAct</text>
  </g>
  <g id="group_psu">
    <rect x="50" y="650" width="150" height="70" rx="5" class="component-body" />
    <text x="125" y="640" text-anchor="middle" class="label">Блок живлення 5V</text>
  </g>
  <g id="group_max6675">
    <rect x="50" y="280" width="120" height="50" rx="5" class="component-body" />
    <text x="110" y="270" text-anchor="middle" class="label">MAX6675 Модуль</text>
  </g>
  <g id="group_safety_relay">
    <rect x="800" y="150" width="70" height="120" rx="5" class="component-body" />
    <text x="835" y="140" text-anchor="middle" class="label">Реле безпеки</text>
  </g>
  <g id="group_ssr">
    <rect x="800" y="350" width="100" height="80" rx="5" class="component-body" />
    <text x="850" y="340" text-anchor="middle" class="label">SSR ZGT-25DA</text>
  </g>
   <g id="group_buzzer">
    <circle cx="125" y="450" r="20" class="component-body"/>
    <text x="125" y="420" text-anchor="middle" class="label">Зумер</text>
  </g>

  <!-- PINS & LABELS -->
  <!-- ESP32 Pins -->
  <text x="440" y="184" text-anchor="end" class="pin-label">GPIO 1</text><circle id="esp_p1" cx="450" cy="180" r="3" fill="#f5a623"/>
  <text x="440" y="214" text-anchor="end" class="pin-label">GPIO 10</text><circle id="esp_p10" cx="450" cy="210" r="3" fill="#f5a623"/>
  <text x="440" y="244" text-anchor="end" class="pin-label">GPIO 11</text><circle id="esp_p11" cx="450" cy="240" r="3" fill="#4a90e2"/>
  <text x="440" y="274" text-anchor="end" class="pin-label">GPIO 12</text><circle id="esp_p12" cx="450" cy="270" r="3" fill="#4a90e2"/>
  <text x="440" y="304" text-anchor="end" class="pin-label">GPIO 13</text><circle id="esp_p13" cx="450" cy="300" r="3" fill="#4a90e2"/>
  <text x="440" y="334" text-anchor="end" class="pin-label">GPIO 5</text><circle id="esp_p5" cx="450" cy="330" r="3" fill="#f5a623"/>
  <text x="560" y="424" text-anchor="start" class="pin-label">5V</text><circle id="esp_5v" cx="550" cy="420" r="3" fill="#d94545"/>
  <text x="560" y="444" text-anchor="start" class="pin-label">GND</text><circle id="esp_gnd" cx="550" cy="440" r="3" fill="#333"/>
  <text x="560" y="464" text-anchor="start" class="pin-label">3.3V</text><circle id="esp_3v3" cx="550" cy="460" r="3" fill="#e67e22"/>
  
  <!-- Power Supply Pins -->
  <text x="70" y="734" text-anchor="middle" class="pin-label">+V</text><circle id="psu_v_pos" cx="70" cy="720" r="3" fill="#d94545"/>
  <text x="130" y="734" text-anchor="middle" class="pin-label">-V</text><circle id="psu_v_neg" cx="130" cy="720" r="3" fill="#333"/>

  <!-- MAX6675 Pins -->
  <text x="40" y="294" class="pin-label">VCC</text><circle id="max_vcc" cx="50" cy="290" r="3" fill="#e67e22"/>
  <text x="40" y="314" class="pin-label">GND</text><circle id="max_gnd" cx="50" cy="310" r="3" fill="#333"/>
  <text x="180" y="294" class="pin-label">SO</text><circle id="max_so" cx="170" cy="290" r="3" fill="#4a90e2"/>
  <text x="180" y="314" class="pin-label">CS</text><circle id="max_cs" cx="170" cy="310" r="3" fill="#4a90e2"/>
  <text x="180" y="334" class="pin-label">SCK</text><circle id="max_sck" cx="170" cy="330" r="3" fill="#4a90e2"/>

  <!-- Safety Relay Pins -->
  <text x="790" y="164" class="pin-label">VCC</text><circle id="relay_vcc" cx="800" cy="160" r="3" fill="#d94545"/>
  <text x="790" y="184" class="pin-label">GND</text><circle id="relay_gnd" cx="800" cy="180" r="3" fill="#333"/>
  <text x="790" y="204" class="pin-label">IN</text><circle id="relay_in" cx="800" cy="200" r="3" fill="#f5a623"/>
  
  <!-- SSR Pins -->
  <text x="785" y="374" class="pin-label">In+</text><circle id="ssr_in_pos" cx="800" cy="370" r="3" fill="#f5a623"/>
  <text x="785" y="414" class="pin-label">In-</text><circle id="ssr_in_neg" cx="800" cy="410" r="3" fill="#333"/>

  <!-- Buzzer Pins -->
  <text x="115" y="480" class="pin-label">+</text><circle id="buzz_pos" cx="125" cy="470" r="3" fill="#f5a623"/>
  <text x="135" y="480" class="pin-label">-</text><circle id="buzz_neg" cx="135" cy="470" r="3" fill="#333"/>

  <!-- WIRING -->
  <!-- Power Distribution -->
  <path d="M 70 720 v -20 h 480 v -280" class="wire-5v"/> <!-- PSU+ to ESP 5V -->
  <path d="M 130 720 v -10 h 420 v -270" class="wire-gnd"/> <!-- PSU- to ESP GND -->
  
  <!-- 5V to Components -->
  <path d="M 550 420 H 600 v -260 H 800" class="wire-5v"/> <!-- ESP 5V to Relay VCC -->

  <!-- 3.3V to MAX6675 -->
  <path d="M 550 460 H 300 v -170 H 50" class="wire-3v3"/> <!-- ESP 3.3V to MAX VCC -->

  <!-- GND to Components -->
  <path d="M 550 440 H 620 v -260 H 800" class="wire-gnd"/> <!-- ESP GND to Relay GND -->
  <path d="M 550 440 H 640 v -30 H 800" class="wire-gnd"/> <!-- ESP GND to SSR In- -->
  <path d="M 550 440 H 250 v -130 H 50" class="wire-gnd"/> <!-- ESP GND to MAX GND -->
  <path d="M 550 440 H 220 v 30 H 135" class="wire-gnd"/> <!-- ESP GND to Buzzer - -->
  
  <!-- SPI Wiring -->
  <path d="M 170 290 H 300 v -50 H 450" class="wire-spi"/> <!-- SO to P11 -->
  <path d="M 170 310 H 320 v -40 H 450" class="wire-spi"/> <!-- CS to P12 -->
  <path d="M 170 330 H 340 v -30 H 450" class="wire-spi"/> <!-- SCK to P13 -->

  <!-- Control Wiring -->
  <path d="M 800 200 H 600 v 10 H 450" class="wire-control"/> <!-- Relay IN to P10 -->
  <path d="M 800 370 H 620 v -190 H 450" class="wire-control"/> <!-- SSR+ to P1 -->
  <path d="M 125 470 v -50 H 200 v -90 H 450" class="wire-control"/> <!-- Buzzer+ to P5 -->

  <!-- High Voltage Part -->
  <g transform="translate(800, 550)">
    <text x="150" y="-10" text-anchor="middle" class="label" fill="#c23b22">ВИСОКА НАПРУГА 220В</text>
    <path d="M 0 50 L 50 50" class="wire-ac"/><text x="-20" y="54">AC-L</text>
    <rect x="50" y="45" width="40" height="10" class="component-body"/><text x="70" y="40">Fuse</text>
    <path d="M 90 50 L 110 50 V 0 H 120 V 50 L 140 50" class="wire-ac"/><text x="115" y="-10">Safety Relay</text>
    <path d="M 140 50 L 160 50 V 100 H 170 V 50 L 190 50" class="wire-ac"/><text x="165" y="120">SSR</text>
    <path d="M 190 50 L 220 50" class="wire-ac"/><circle cx="220" cy="50" r="4" fill="#c23b22"/>
    <text x="230" y="54">To Heater (L)</text>

    <path d="M 0 150 L 220 150" class="wire-ac"/><text x="-20" y="154">AC-N</text><circle cx="220" cy="150" r="4" fill="#c23b22"/>
    <text x="230" y="154">To Heater (N)</text>
  </g>
</svg>
