<!-- Generated by Trae AI - v5.0 Final Simplified -->
<svg width="1400" height="900" xmlns="http://www.w3.org/2000/svg">

  <style>
    .bg { fill: #ffffff; }
    .label { font: bold 14px sans-serif; }
    .pin-label { font: bold 12px sans-serif; }
    .component-body { fill: #f5f5f5; stroke: #000; stroke-width: 1.5; }
    .title { font: bold 22px sans-serif; fill: #000; }
    
    .wire-5v { stroke: #c0392b; stroke-width: 2.5; fill: none; }
    .wire-3v3 { stroke: #d35400; stroke-width: 2.5; fill: none; }
    .wire-gnd { stroke: #2c3e50; stroke-width: 2.5; fill: none; }
    
    .wire-spi { stroke: #2980b9; stroke-width: 1.5; fill: none; }
    .wire-control { stroke: #f39c12; stroke-width: 1.5; fill: none; }
    
    .wire-ac { stroke: #c0392b; stroke-width: 3; fill: none; }
    .wire-ac-n { stroke: #34495e; stroke-width: 3; fill: none; }

    .hv-box { fill: rgba(192, 57, 43, 0.05); stroke: #c0392b; stroke-width: 2; stroke-dasharray: 8, 4; }
    .capacitor-label { font-size: 10px; fill: #555; }
  </style>

  <rect width="100%" height="100%" class="bg"/>

  <title>Фінальна спрощена схема (без реле безпеки)</title>
  <text x="700" y="50" text-anchor="middle" class="title">Фінальна спрощена схема (без реле безпеки)</text>

  <!-- POWER RAILS -->
  <path d="M 50 850 H 1350" class="wire-5v"/>
  <text x="40" y="855" class="label" fill="#c0392b">+5V</text>
  <path d="M 50 820 H 1350" class="wire-3v3"/>
  <text x="40" y="825" class="label" fill="#d35400">+3.3V</text>
  <path d="M 50 790 H 1350" class="wire-gnd"/>
  <text x="40" y="795" class="label" fill="#2c3e50">GND</text>

  <!-- CAPACITORS on Rails -->
  <g transform="translate(1200, 805)">
      <rect x="-15" y="-15" width="30" height="30" fill="#f5f5f5" stroke="#333"/>
      <line x1="0" y1="-15" x2="0" y2="-45" stroke="#2c3e50" stroke-width="1.5"/>
      <line x1="0" y1="15" x2="0" y2="45" stroke="#c0392b" stroke-width="1.5"/>
      <text x="20" y="5" class="capacitor-label">100uF</text>
  </g>

  <!-- COMPONENTS -->
  <g transform="translate(600, 200)">
    <rect width="120" height="350" rx="8" class="component-body" />
    <text x="60" y="-15" text-anchor="middle" class="label">ESP32-S3 WeAct</text>
  </g>
  <g transform="translate(100, 150)">
    <rect width="150" height="80" rx="8" class="component-body" />
    <text x="75" y="-15" text-anchor="middle" class="label">Блок живлення 5V</text>
  </g>
  <g transform="translate(100, 300)">
    <rect width="150" height="100" rx="8" class="component-body" />
    <text x="75" y="-15" text-anchor="middle" class="label">MAX6675 Модуль</text>
    <g transform="translate(75, 70)">
      <rect x="-10" y="-10" width="20" height="20" fill="#fff" stroke="#333" stroke-width="1"/>
      <line x1="-10" y1="0" x2="10" y2="0" stroke="#333" stroke-width="1"/>
      <line x1="0" y1="-10" x2="0" y2="-20" stroke="#d35400" stroke-width="1.5"/>
      <line x1="0" y1="10" x2="0" y2="20" stroke="#2c3e50" stroke-width="1.5"/>
      <text x="15" y="5" class="capacitor-label">100nF</text>
    </g>
  </g>
  <g transform="translate(100, 480)">
    <circle cx="75" cy="40" r="25" class="component-body"/>
    <text x="75" y="-15" text-anchor="middle" class="label">Зумер</text>
  </g>
  <g transform="translate(1050, 450)">
    <rect width="120" height="100" rx="8" class="component-body" />
    <text x="60" y="-15" text-anchor="middle" class="label">SSR ZGT-25DA</text>
  </g>
  
  <!-- PINS & LABELS -->
  <!-- ESP32 Pins -->
  <text x="590" y="234" text-anchor="end" class="pin-label">GPIO 1</text><circle id="esp_p1" cx="600" cy="230" r="4"/>
  <text x="590" y="384" text-anchor="end" class="pin-label">GPIO 5</text><circle id="esp_p5" cx="600" cy="380" r="4"/>
  <text x="590" y="294" text-anchor="end" class="pin-label">GPIO 11</text><circle id="esp_p11" cx="600" cy="290" r="4"/>
  <text x="590" y="324" text-anchor="end" class="pin-label">GPIO 12</text><circle id="esp_p12" cx="600" cy="320" r="4"/>
  <text x="590" y="354" text-anchor="end" class="pin-label">GPIO 13</text><circle id="esp_p13" cx="600" cy="350" r="4"/>
  <text x="730" y="504" text-anchor="start" class="pin-label">5V</text><circle id="esp_5v" cx="720" cy="500" r="4"/>
  <text x="730" y="534" text-anchor="start" class="pin-label">GND</text><circle id="esp_gnd" cx="720" cy="530" r="4"/>
  <text x="730" y="474" text-anchor="start" class="pin-label">3.3V</text><circle id="esp_3v3" cx="720" cy="470" r="4"/>

  <!-- Power Supply Pins -->
  <text x="130" y="244" text-anchor="middle" class="pin-label">+V</text><circle id="psu_v_pos" cx="130" cy="230" r="4"/>
  <text x="200" y="244" text-anchor="middle" class="pin-label">-V</text><circle id="psu_v_neg" cx="200" cy="230" r="4"/>

  <!-- MAX6675 Pins -->
  <text x="260" y="324" class="pin-label">VCC</text><circle id="max_vcc" cx="250" cy="320" r="4"/>
  <text x="260" y="364" class="pin-label">GND</text><circle id="max_gnd" cx="250" cy="360" r="4"/>
  <text x="90" y="324" text-anchor="end" class="pin-label">SO</text><circle id="max_so" cx="100" cy="320" r="4"/>
  <text x="90" y="344" text-anchor="end" class="pin-label">CS</text><circle id="max_cs" cx="100" cy="340" r="4"/>
  <text x="90" y="364" text-anchor="end" class="pin-label">SCK</text><circle id="max_sck" cx="100" cy="360" r="4"/>
  
  <!-- SSR Pins -->
  <text x="1040" y="474" text-anchor="end" class="pin-label">In+</text><circle id="ssr_in_pos" cx="1050" cy="470" r="4"/>
  <text x="1040" y="504" text-anchor="end" class="pin-label">In-</text><circle id="ssr_in_neg" cx="1050" cy="500" r="4"/>

  <!-- Buzzer Pins -->
  <text x="185" y="494" class="pin-label">+</text><circle id="buzz_pos" cx="175" cy="500" r="4"/>
  <text x="185" y="534" class="pin-label">-</text><circle id="buzz_neg" cx="175" cy="520" r="4"/>
  
  <!-- WIRING -->
  <!-- Power Connections -->
  <path d="M 130 230 V 700 H 1100 V 850" class="wire-5v"/><path d="M 720 500 V 850" class="wire-5v"/>
  <path d="M 200 230 V 790" class="wire-gnd"/><path d="M 720 530 V 790" class="wire-gnd"/>
  <path d="M 720 470 V 820" class="wire-3v3"/>

  <!-- VCC/GND to Components -->
  <path d="M 250 320 H 400 V 820" class="wire-3v3"/> <!-- MAX VCC -->
  <path d="M 175 380 v -20 H 400" class="wire-gnd"/>  <!-- MAX GND from cap -->
  <path d="M 1050 500 H 860 V 790" class="wire-gnd"/> <!-- SSR GND -->
  <path d="M 175 520 H 350 V 790" class="wire-gnd"/>  <!-- Buzzer GND -->
  
  <!-- SPI Wiring -->
  <path d="M 100 320 H 600 V 290" class="wire-spi"/> <!-- SO to P11 -->
  <path d="M 100 340 H 500 V 320 H 600" class="wire-spi"/> <!-- CS to P12 -->
  <path d="M 100 360 H 480 V 350 H 600" class="wire-spi"/> <!-- SCK to P13 -->

  <!-- Control Wiring -->
  <path d="M 1050 470 H 770 V 230 H 600" class="wire-control"/> <!-- SSR+ to P1 -->
  <path d="M 175 500 v -50 H 470 V 380 H 600" class="wire-control"/> <!-- Buzzer+ to P5 -->

  <!-- High Voltage Part -->
  <rect x="950" y="600" width="400" height="150" class="hv-box"/>
  <text x="1150" y="590" text-anchor="middle" class="label" fill="#c0392b">ЗОНА ВИСОКОЇ НАПРУГИ (220В)</text>
  <g transform="translate(980, 680)">
    <path d="M 0 0 L 50 0" class="wire-ac"/><text x="-25" y="5">AC-L</text>
    <rect x="50" y="-5" width="40" height="10" class="component-body"/><text x="70" y="-10">Fuse</text>
    <path d="M 90 0 L 160 0" class="wire-ac"/>
    <line x1="160" y1="-20" x2="160" y2="20" stroke="#7f8c8d" stroke-width="1"/>
    <text x="180" y="-10">SSR</text>
    <path d="M 160 0 L 210 0" class="wire-ac"/>
    <circle cx="210" cy="0" r="4" fill="#c0392b"/>
    <text x="220" y="5">To Heater (L)</text>

    <path d="M 0 100 L 210 100" class="wire-ac-n"/><text x="-25" y="105">AC-N</text>
    <circle cx="210" cy="100" r="4" fill="#34495e"/>
    <text x="220" y="105">To Heater (N)</text>
  </g>
</svg>
